<?xml version="1.0"?>

<svg width="100%" height="100%" viewBox="0 0 192 38" version="1.1" xmlns="http://www.w3.org/2000/svg" xmlns:xlink="http://www.w3.org/1999/xlink" xml:space="preserve" xmlns:serif="http://www.serif.com/" style="fill-rule:evenodd;clip-rule:evenodd;stroke-miterlimit:10;">
    <g transform="matrix(1.19418,0,0,1.19418,-30.8693,-47.0917)">
        <g id="Layer_1-2">
            <g>
                <g transform="matrix(1,0,0,1,26,-4)">
                    <path d="M24.68,73.91C23.02,73.91 21.68,72.57 21.68,70.91L21.68,53.89L17.34,57.47C15.86,58.69 13.76,58.73 12.24,57.55L7.15,53.62L7.15,70.63C7.15,72.29 5.81,73.63 4.15,73.63C2.49,73.63 1.15,72.29 1.15,70.63L1.15,48.06C1.15,46.81 1.85,45.68 2.98,45.13C4.11,44.58 5.42,44.71 6.42,45.48L14.71,51.88L22.42,45.51C23.37,44.72 24.72,44.55 25.84,45.08C26.96,45.61 27.69,46.75 27.69,48L27.69,70.92C27.69,72.58 26.35,73.92 24.69,73.92L24.68,73.91Z" style="fill:rgb(56,217,200);fill-rule:nonzero;stroke:rgb(56,217,200);stroke-width:2.3px;"></path>
                </g>
                <g transform="matrix(1,0,0,1,26,-4)">
                    <path d="M47.38,73.97C39.32,73.97 32.76,67.41 32.76,59.35C32.76,51.29 39.32,44.73 47.38,44.73C55.44,44.73 62,51.29 62,59.35C62,67.41 55.44,73.97 47.38,73.97ZM47.38,50.72C42.63,50.72 38.76,54.59 38.76,59.34C38.76,64.09 42.63,67.96 47.38,67.96C52.13,67.96 56,64.09 56,59.34C56,54.59 52.13,50.72 47.38,50.72Z" style="fill:rgb(56,217,200);fill-rule:nonzero;stroke:rgb(56,217,200);stroke-width:2.3px;"></path>
                </g>
                <g transform="matrix(1,0,0,1,26,-4)">
                    <circle cx="80.35" cy="59.34" r="11.62" style="fill:rgb(237,79,62);stroke:rgb(237,79,62);stroke-width:2.3px;"></circle>
                    <path d="M80.35,73.97C72.29,73.97 65.73,67.41 65.73,59.35C65.73,51.29 72.29,44.73 80.35,44.73C88.41,44.73 94.97,51.29 94.97,59.35C94.97,67.41 88.41,73.97 80.35,73.97ZM80.35,50.72C75.6,50.72 71.73,54.59 71.73,59.34C71.73,64.09 75.6,67.96 80.35,67.96C85.1,67.96 88.97,64.09 88.97,59.34C88.97,54.59 85.1,50.72 80.35,50.72Z" style="fill:rgb(237,79,62);fill-rule:nonzero;stroke:rgb(237,79,62);stroke-width:2.3px;"></path>
                </g>
                <g transform="matrix(1,0,0,1,26,-4)">
                    <path d="M121.37,60.53C123.97,59.28 125.92,56.72 125.92,52.67C125.92,47.21 121.35,44.72 117.11,44.72L103.71,44.72C102.05,44.72 100.71,46.06 100.71,47.72L100.71,70.92C100.71,72.58 102.05,73.92 103.71,73.92C105.37,73.92 106.71,72.58 106.71,70.92L106.71,61.49L115.2,61.49L120.2,72.24C120.71,73.33 121.79,73.97 122.92,73.97C123.35,73.97 123.78,73.88 124.19,73.69C125.69,72.99 126.34,71.21 125.64,69.7L121.37,60.53ZM106.71,50.72L117.11,50.72C118.97,50.72 119.92,51.38 119.92,52.67C119.92,53.44 119.92,55.49 117.11,55.49L106.71,55.49L106.71,50.72Z" style="fill:rgb(56,217,200);fill-rule:nonzero;stroke:rgb(56,217,200);stroke-width:2.3px;"></path>
                </g>
                <g transform="matrix(1,0,0,1,26,-4)">
                    <path d="M159.33,70.94C159.33,72.6 157.99,73.94 156.33,73.94L135.77,73.94C134.11,73.94 132.77,72.6 132.77,70.94L132.77,47.75C132.77,46.09 134.11,44.75 135.77,44.75L156.33,44.75C157.99,44.75 159.33,46.09 159.33,47.75C159.33,49.41 157.99,50.75 156.33,50.75L138.77,50.75L138.77,55.51L147.97,55.51C149.63,55.51 150.97,56.85 150.97,58.51C150.97,60.17 149.63,61.51 147.97,61.51L138.77,61.51L138.77,67.94L156.33,67.94C157.99,67.94 159.33,69.29 159.33,70.94Z" style="fill:rgb(56,217,200);fill-rule:nonzero;stroke:rgb(56,217,200);stroke-width:2.3px;"></path>
                </g>
            </g>
        </g>
    </g>
</svg>