<svg xmlns="http://www.w3.org/2000/svg" viewBox="0 0 64 64">
  <rect width="64" height="64" fill="#0c1a1f"/>
  <!-- The "M" from the Moore wordmark (logo.svg), scaled and centered -->
  <g transform="translate(12.07,-49.78) scale(1.379)">
    <path d="M24.68,73.91C23.02,73.91 21.68,72.57 21.68,70.91L21.68,53.89L17.34,57.47C15.86,58.69 13.76,58.73 12.24,57.55L7.15,53.62L7.15,70.63C7.15,72.29 5.81,73.63 4.15,73.63C2.49,73.63 1.15,72.29 1.15,70.63L1.15,48.06C1.15,46.81 1.85,45.68 2.98,45.13C4.11,44.58 5.42,44.71 6.42,45.48L14.71,51.88L22.42,45.51C23.37,44.72 24.72,44.55 25.84,45.08C26.96,45.61 27.69,46.75 27.69,48L27.69,70.92C27.69,72.58 26.35,73.92 24.69,73.92L24.68,73.91Z" fill="rgb(56,217,200)" stroke="rgb(56,217,200)" stroke-width="2.3" stroke-miterlimit="10"/>
  </g>
</svg>
